<?xml version="1.0" encoding="UTF-8" standalone="no"?>
<svg
   width="1487"
   height="853"
   id="svg"
   version="1.1"
   sodipodi:docname="art.svg"
   inkscape:version="1.1.2 (08b2f3d93c, 2022-04-05)"
   xmlns:inkscape="http://www.inkscape.org/namespaces/inkscape"
   xmlns:sodipodi="http://sodipodi.sourceforge.net/DTD/sodipodi-0.dtd"
   xmlns:xlink="http://www.w3.org/1999/xlink"
   xmlns="http://www.w3.org/2000/svg"
   xmlns:svg="http://www.w3.org/2000/svg">
  <defs
     id="defs85">
    <linearGradient
       inkscape:collect="always"
       id="linearGradient2699">
      <stop
         style="stop-color:#fde23c;stop-opacity:1;"
         offset="0"
         id="stop2695" />
      <stop
         style="stop-color:#eb6513;stop-opacity:1"
         offset="1"
         id="stop2697" />
    </linearGradient>
    <radialGradient
       inkscape:collect="always"
       xlink:href="#linearGradient2699"
       id="radialGradient2693"
       cx="359.17596"
       cy="486.70969"
       fx="359.17596"
       fy="486.70969"
       r="933.89423"
       gradientTransform="matrix(0.47659151,-0.95038899,0.56222377,0.70399626,328.68242,405.7411)"
       gradientUnits="userSpaceOnUse" />
  </defs>
  <sodipodi:namedview
     id="namedview83"
     pagecolor="#ffffff"
     bordercolor="#666666"
     borderopacity="1.0"
     inkscape:pageshadow="2"
     inkscape:pageopacity="0.0"
     inkscape:pagecheckerboard="0"
     showgrid="false"
     inkscape:zoom="0.63625345"
     inkscape:cx="693.90587"
     inkscape:cy="234.96926"
     inkscape:window-width="1920"
     inkscape:window-height="1016"
     inkscape:window-x="0"
     inkscape:window-y="0"
     inkscape:window-maximized="1"
     inkscape:current-layer="layer3" />
  <g
     inkscape:groupmode="layer"
     id="layer5"
     inkscape:label="Sky">
    <rect
       style="opacity:0.97;fill:url(#radialGradient2693);fill-opacity:1;stroke-width:1.38391;stroke-linejoin:round;paint-order:fill markers stroke"
       id="rect2433"
       width="1867.7885"
       height="2086.8401"
       x="-146.63878"
       y="-1238.8462" />
  </g>
  <g
     inkscape:groupmode="layer"
     id="layer4"
     inkscape:label="Sun">
    <ellipse
       style="opacity:0.97;fill:#fde23c;fill-opacity:1;stroke-width:0.525597;stroke-linejoin:round;paint-order:fill markers stroke"
       id="path2386"
       cx="770.66675"
       cy="248.99162"
       rx="185.4498"
       ry="186.46452" />
  </g>
  <g
     inkscape:groupmode="layer"
     id="layer3"
     inkscape:label="backBuildings">
    <g
       id="g2339"
       transform="translate(-23,-81)">
      <g
         id="g1765"
         transform="matrix(1,0,0,-1,-8.918823,578.97516)">
        <rect
           x="1275"
           y="0"
           width="183"
           height="129"
           fill="#a11819"
           id="rect1523" />
        <rect
           x="-24"
           y="0"
           width="179"
           height="270"
           fill="#a11819"
           id="rect1525" />
        <rect
           x="773"
           y="0"
           width="219"
           height="70"
           fill="#a11819"
           id="rect1527" />
        <rect
           x="84"
           y="0"
           width="196"
           height="235"
           fill="#a11819"
           id="rect1529" />
        <rect
           x="1488"
           y="0"
           width="53"
           height="275"
           fill="#a11819"
           id="rect1531" />
        <rect
           x="1341"
           y="0"
           width="26"
           height="220"
           fill="#a11819"
           id="rect1533" />
        <rect
           x="181"
           y="0"
           width="73"
           height="133"
           fill="#a11819"
           id="rect1535" />
        <rect
           x="1344"
           y="0"
           width="139"
           height="114"
           fill="#a11819"
           id="rect1539" />
        <rect
           x="1411"
           y="0"
           width="202"
           height="256"
           fill="#a11819"
           id="rect1541" />
        <rect
           x="896"
           y="0"
           width="54"
           height="145"
           fill="#a11819"
           id="rect1543" />
        <rect
           x="-21"
           y="0"
           width="85"
           height="166"
           fill="#a11819"
           id="rect1545" />
        <rect
           x="1165"
           y="0"
           width="125"
           height="270"
           fill="#a11819"
           id="rect1547" />
        <rect
           x="1288"
           y="0"
           width="99"
           height="259"
           fill="#a11819"
           id="rect1549" />
        <rect
           x="1339"
           y="0"
           width="134"
           height="202"
           fill="#a11819"
           id="rect1553" />
        <rect
           x="1266"
           y="120"
           width="53"
           height="204"
           fill="#a11819"
           id="rect1555" />
        <rect
           x="998"
           y="0"
           width="200"
           height="129"
           fill="#a11819"
           id="rect1559" />
        <rect
           x="1269"
           y="0"
           width="218"
           height="146"
           fill="#a11819"
           id="rect1561" />
        <rect
           x="440"
           y="0"
           width="106"
           height="246"
           fill="#a11819"
           id="rect1563" />
        <rect
           x="606"
           y="0"
           width="146"
           height="235"
           fill="#a11819"
           id="rect1565" />
        <rect
           x="1329"
           y="0"
           width="212"
           height="191"
           fill="#a11819"
           id="rect1567" />
        <rect
           x="1037"
           y="0"
           width="130"
           height="258"
           fill="#a11819"
           id="rect1571" />
        <rect
           x="38"
           y="0"
           width="183"
           height="39"
           fill="#a11819"
           id="rect1573" />
        <rect
           x="524"
           y="0"
           width="177"
           height="23"
           fill="#a11819"
           id="rect1575" />
        <rect
           x="1150"
           y="0"
           width="205"
           height="154"
           fill="#a11819"
           id="rect1577" />
        <rect
           x="1247"
           y="0"
           width="23"
           height="280"
           fill="#a11819"
           id="rect1579" />
        <rect
           x="744"
           y="0"
           width="156"
           height="33"
           fill="#a11819"
           id="rect1581" />
        <rect
           x="1339"
           y="0"
           width="46"
           height="114"
           fill="#a11819"
           id="rect1583" />
        <rect
           x="244"
           y="0"
           width="43"
           height="28"
           fill="#a11819"
           id="rect1585" />
        <rect
           x="487"
           y="0"
           width="166"
           height="70"
           fill="#a11819"
           id="rect1587" />
        <rect
           x="624"
           y="0"
           width="66"
           height="117"
           fill="#a11819"
           id="rect1589" />
        <rect
           x="3"
           y="0"
           width="63"
           height="86"
           fill="#a11819"
           id="rect1591" />
        <rect
           x="1470"
           y="0"
           width="177"
           height="102"
           fill="#a11819"
           id="rect1593" />
        <rect
           x="633"
           y="0"
           width="203"
           height="50"
           fill="#a11819"
           id="rect1595" />
        <rect
           x="168"
           y="0"
           width="61"
           height="125"
           fill="#a11819"
           id="rect1597" />
        <rect
           x="736"
           y="0"
           width="149"
           height="183"
           fill="#a11819"
           id="rect1599" />
        <rect
           x="925"
           y="0"
           width="83"
           height="133"
           fill="#a11819"
           id="rect1601" />
        <rect
           x="330"
           y="0"
           width="117"
           height="252"
           fill="#a11819"
           id="rect1603" />
        <rect
           x="1386"
           y="0"
           width="110"
           height="216"
           fill="#a11819"
           id="rect1605" />
        <rect
           x="1325"
           y="0"
           width="209"
           height="181"
           fill="#a11819"
           id="rect1609" />
        <rect
           x="479"
           y="0"
           width="56"
           height="234"
           fill="#a11819"
           id="rect1611" />
        <rect
           x="1395"
           y="0"
           width="66"
           height="160"
           fill="#a11819"
           id="rect1615" />
        <rect
           x="1416"
           y="0"
           width="215"
           height="77"
           fill="#a11819"
           id="rect1617" />
        <rect
           x="1072"
           y="0"
           width="46"
           height="176"
           fill="#a11819"
           id="rect1619" />
        <rect
           x="305"
           y="62"
           width="70"
           height="131"
           fill="#a11819"
           id="rect1621" />
        <rect
           x="1408"
           y="0"
           width="140"
           height="231"
           fill="#a11819"
           id="rect1623" />
        <rect
           x="153"
           y="0"
           width="20"
           height="78"
           fill="#a11819"
           id="rect1625" />
        <rect
           x="501"
           y="0"
           width="141"
           height="58"
           fill="#a11819"
           id="rect1629" />
        <rect
           x="1166"
           y="0"
           width="214"
           height="304"
           fill="#a11819"
           id="rect1631" />
        <rect
           x="109"
           y="0"
           width="38"
           height="115"
           fill="#a11819"
           id="rect1633" />
        <rect
           x="221"
           y="0"
           width="129"
           height="113"
           fill="#a11819"
           id="rect1635" />
        <rect
           x="640"
           y="0"
           width="26"
           height="151"
           fill="#a11819"
           id="rect1637" />
        <rect
           x="492"
           y="0"
           width="152"
           height="46"
           fill="#a11819"
           id="rect1639" />
        <rect
           x="586"
           y="0"
           width="113"
           height="90"
           fill="#a11819"
           id="rect1641" />
      </g>
      <rect
         style="opacity:0.97;fill:#a11819;fill-opacity:1;stroke-width:1.02455;stroke-linejoin:round;paint-order:fill markers stroke"
         id="rect2177"
         width="1687"
         height="231.20212"
         x="-48.918823"
         y="578.97516" />
    </g>
  </g>
  <g
     inkscape:groupmode="layer"
     id="layer1"
     inkscape:label="midBuildings">
    <g
       id="g1170"
       transform="matrix(1,0,0,-1,70.081177,684.97516)">
      <rect
         x="1295"
         y="0"
         width="179"
         height="208"
         fill="#5f1113"
         id="rect1045" />
      <rect
         x="1350"
         y="0"
         width="85"
         height="214"
         fill="#5f1113"
         id="rect1047" />
      <rect
         x="335"
         y="0"
         width="66"
         height="195"
         fill="#5f1113"
         id="rect1049" />
      <rect
         x="447"
         y="0"
         width="101"
         height="280"
         fill="#5f1113"
         id="rect1051" />
      <rect
         x="1210"
         y="0"
         width="80"
         height="180"
         fill="#5f1113"
         id="rect1053" />
      <rect
         x="152"
         y="0"
         width="45"
         height="179"
         fill="#5f1113"
         id="rect1055" />
      <rect
         x="66"
         y="0"
         width="98"
         height="312"
         fill="#5f1113"
         id="rect1057" />
      <rect
         x="463"
         y="0"
         width="162"
         height="123"
         fill="#5f1113"
         id="rect1059" />
      <rect
         x="429"
         y="0"
         width="179"
         height="141"
         fill="#5f1113"
         id="rect1061" />
      <rect
         x="499"
         y="0"
         width="119"
         height="259"
         fill="#5f1113"
         id="rect1063" />
      <rect
         x="467"
         y="0"
         width="211"
         height="121"
         fill="#5f1113"
         id="rect1065" />
      <rect
         x="679"
         y="0"
         width="134"
         height="123"
         fill="#5f1113"
         id="rect1067" />
      <rect
         x="-35"
         y="0"
         width="212"
         height="305"
         fill="#5f1113"
         id="rect1069" />
      <rect
         x="86"
         y="0"
         width="22"
         height="93"
         fill="#5f1113"
         id="rect1071" />
      <rect
         x="1217"
         y="0"
         width="185"
         height="307"
         fill="#5f1113"
         id="rect1073" />
      <rect
         x="720"
         y="0"
         width="119"
         height="222"
         fill="#5f1113"
         id="rect1075" />
      <rect
         x="1029"
         y="0"
         width="80"
         height="77"
         fill="#5f1113"
         id="rect1077" />
      <rect
         x="1133"
         y="0"
         width="169"
         height="73"
         fill="#5f1113"
         id="rect1079" />
      <rect
         x="793"
         y="0"
         width="146"
         height="226"
         fill="#5f1113"
         id="rect1081" />
      <rect
         x="552"
         y="0"
         width="49"
         height="190"
         fill="#5f1113"
         id="rect1083" />
      <rect
         x="179"
         y="0"
         width="210"
         height="170"
         fill="#5f1113"
         id="rect1085" />
      <rect
         x="1001"
         y="0"
         width="181"
         height="180"
         fill="#5f1113"
         id="rect1087" />
      <rect
         x="1049"
         y="0"
         width="69"
         height="224"
         fill="#5f1113"
         id="rect1089" />
      <rect
         x="482"
         y="0"
         width="36"
         height="98"
         fill="#5f1113"
         id="rect1091" />
      <rect
         x="672"
         y="0"
         width="142"
         height="201"
         fill="#5f1113"
         id="rect1093" />
      <rect
         x="954"
         y="0"
         width="166"
         height="87"
         fill="#5f1113"
         id="rect1095" />
      <rect
         x="110"
         y="0"
         width="188"
         height="285"
         fill="#5f1113"
         id="rect1097" />
      <rect
         x="958"
         y="0"
         width="37"
         height="92"
         fill="#5f1113"
         id="rect1099" />
      <rect
         x="601"
         y="0"
         width="105"
         height="144"
         fill="#5f1113"
         id="rect1101" />
      <rect
         x="1154"
         y="0"
         width="191"
         height="36"
         fill="#5f1113"
         id="rect1103" />
      <rect
         x="792"
         y="0"
         width="51"
         height="99"
         fill="#5f1113"
         id="rect1105" />
      <rect
         x="1091"
         y="0"
         width="65"
         height="187"
         fill="#5f1113"
         id="rect1107" />
      <rect
         x="65"
         y="0"
         width="131"
         height="28"
         fill="#5f1113"
         id="rect1109" />
      <rect
         x="312"
         y="0"
         width="191"
         height="237"
         fill="#5f1113"
         id="rect1111" />
      <rect
         x="1013"
         y="0"
         width="168"
         height="174"
         fill="#5f1113"
         id="rect1113" />
      <rect
         x="1409"
         y="0"
         width="92"
         height="217"
         fill="#5f1113"
         id="rect1115" />
      <rect
         x="292"
         y="0"
         width="111"
         height="131"
         fill="#5f1113"
         id="rect1117" />
      <rect
         x="1314"
         y="0"
         width="205"
         height="210"
         fill="#5f1113"
         id="rect1119" />
      <rect
         x="112"
         y="0"
         width="91"
         height="223"
         fill="#5f1113"
         id="rect1121" />
      <rect
         x="57"
         y="0"
         width="188"
         height="254"
         fill="#5f1113"
         id="rect1123" />
    </g>
    <rect
       style="opacity:0.97;fill:#5f1113;fill-opacity:1;stroke-width:1.00157;stroke-linejoin:round;paint-order:fill markers stroke"
       id="rect1278"
       width="1648.7029"
       height="190.84573"
       x="1.0811671"
       y="662.12939" />
  </g>
  <g
     inkscape:groupmode="layer"
     id="layer2"
     inkscape:label="front Buildings">
    <g
       id="g942">
      <rect
         x="623.08118"
         y="-852.97516"
         width="68"
         height="175"
         fill="#410404"
         id="rect2"
         transform="scale(1,-1)" />
      <rect
         x="448.08118"
         y="-852.97516"
         width="155"
         height="288"
         fill="#410404"
         id="rect4"
         transform="scale(1,-1)" />
      <rect
         x="1248.0812"
         y="-852.97516"
         width="180"
         height="188"
         fill="#410404"
         id="rect6"
         transform="scale(1,-1)" />
      <rect
         x="909.08118"
         y="-852.97516"
         width="169"
         height="40"
         fill="#410404"
         id="rect8"
         transform="scale(1,-1)" />
      <rect
         x="301.08118"
         y="-852.97516"
         width="53"
         height="128"
         fill="#410404"
         id="rect10"
         transform="scale(1,-1)" />
      <rect
         x="1163.0812"
         y="-852.97516"
         width="205"
         height="81"
         fill="#410404"
         id="rect12"
         transform="scale(1,-1)" />
      <rect
         x="799.08118"
         y="-852.97516"
         width="111"
         height="115"
         fill="#410404"
         id="rect14"
         transform="scale(1,-1)" />
      <rect
         x="1471.0812"
         y="-852.97516"
         width="200"
         height="93"
         fill="#410404"
         id="rect16"
         transform="scale(1,-1)" />
      <rect
         x="789.08118"
         y="-852.97516"
         width="24"
         height="256"
         fill="#410404"
         id="rect18"
         transform="scale(1,-1)" />
      <rect
         x="409.08118"
         y="-852.97516"
         width="26"
         height="32"
         fill="#410404"
         id="rect20"
         transform="scale(1,-1)" />
      <rect
         x="324.08118"
         y="-852.97516"
         width="146"
         height="116"
         fill="#410404"
         id="rect22"
         transform="scale(1,-1)" />
      <rect
         x="1357.0812"
         y="-852.97516"
         width="202"
         height="179"
         fill="#410404"
         id="rect24"
         transform="scale(1,-1)" />
      <rect
         x="1132.0812"
         y="-852.97516"
         width="75"
         height="270"
         fill="#410404"
         id="rect26"
         transform="scale(1,-1)" />
      <rect
         x="438.08118"
         y="-852.97516"
         width="199"
         height="53"
         fill="#410404"
         id="rect28"
         transform="scale(1,-1)" />
      <rect
         x="1105.0812"
         y="-852.97516"
         width="40"
         height="195"
         fill="#410404"
         id="rect30"
         transform="scale(1,-1)" />
      <rect
         x="448.08118"
         y="-852.97516"
         width="219"
         height="275"
         fill="#410404"
         id="rect32"
         transform="scale(1,-1)" />
      <rect
         x="364.08118"
         y="-852.97516"
         width="84"
         height="169"
         fill="#410404"
         id="rect34"
         transform="scale(1,-1)" />
      <rect
         x="1292.0812"
         y="-852.97516"
         width="53"
         height="192"
         fill="#410404"
         id="rect36"
         transform="scale(1,-1)" />
      <rect
         x="1094.0812"
         y="-852.97516"
         width="85"
         height="317"
         fill="#410404"
         id="rect38"
         transform="scale(1,-1)" />
      <rect
         x="1007.0812"
         y="-852.97516"
         width="94"
         height="95"
         fill="#410404"
         id="rect40"
         transform="scale(1,-1)" />
      <rect
         x="168.08116"
         y="-852.97516"
         width="97"
         height="128"
         fill="#410404"
         id="rect42"
         transform="scale(1,-1)" />
      <rect
         x="1140.0812"
         y="-852.97516"
         width="83"
         height="295"
         fill="#410404"
         id="rect44"
         transform="scale(1,-1)" />
      <rect
         x="817.08118"
         y="-852.97516"
         width="188"
         height="123"
         fill="#410404"
         id="rect46"
         transform="scale(1,-1)" />
      <rect
         x="750.08118"
         y="-852.97516"
         width="78"
         height="199"
         fill="#410404"
         id="rect48"
         transform="scale(1,-1)" />
      <rect
         x="962.08118"
         y="-852.97516"
         width="160"
         height="48"
         fill="#410404"
         id="rect50"
         transform="scale(1,-1)" />
      <rect
         x="1365.0812"
         y="-852.97516"
         width="103"
         height="168"
         fill="#410404"
         id="rect52"
         transform="scale(1,-1)" />
      <rect
         x="195.08116"
         y="-852.97516"
         width="46"
         height="258"
         fill="#410404"
         id="rect54"
         transform="scale(1,-1)" />
      <rect
         x="453.08118"
         y="-852.97516"
         width="33"
         height="238"
         fill="#410404"
         id="rect56"
         transform="scale(1,-1)" />
      <rect
         x="260.08118"
         y="-852.97516"
         width="180"
         height="149"
         fill="#410404"
         id="rect58"
         transform="scale(1,-1)" />
      <rect
         x="939.08118"
         y="-852.97516"
         width="100"
         height="97"
         fill="#410404"
         id="rect60"
         transform="scale(1,-1)" />
      <rect
         x="721.08118"
         y="-852.97516"
         width="147"
         height="192"
         fill="#410404"
         id="rect62"
         transform="scale(1,-1)" />
      <rect
         x="913.08118"
         y="-852.97516"
         width="70"
         height="143"
         fill="#410404"
         id="rect64"
         transform="scale(1,-1)" />
      <rect
         x="533.08118"
         y="-852.97516"
         width="167"
         height="82"
         fill="#410404"
         id="rect66"
         transform="scale(1,-1)" />
      <rect
         x="1135.0812"
         y="-852.97516"
         width="197"
         height="130"
         fill="#410404"
         id="rect68"
         transform="scale(1,-1)" />
      <rect
         x="1443.0812"
         y="-852.97516"
         width="201"
         height="293"
         fill="#410404"
         id="rect70"
         transform="scale(1,-1)" />
      <rect
         x="1.0811671"
         y="-852.97516"
         width="59"
         height="272"
         fill="#410404"
         id="rect72"
         transform="scale(1,-1)" />
      <rect
         x="242.08116"
         y="-852.97516"
         width="161"
         height="86"
         fill="#410404"
         id="rect74"
         transform="scale(1,-1)" />
      <rect
         x="1412.0812"
         y="-852.97516"
         width="68"
         height="277"
         fill="#410404"
         id="rect76"
         transform="scale(1,-1)" />
      <rect
         x="122.08117"
         y="-852.97516"
         width="171"
         height="270"
         fill="#410404"
         id="rect78"
         transform="scale(1,-1)" />
      <rect
         x="44.081165"
         y="-852.97516"
         width="120"
         height="200"
         fill="#410404"
         id="rect80"
         transform="scale(1,-1)" />
    </g>
  </g>
</svg>
